<svg xmlns="http://www.w3.org/2000/svg" width="16" height="16" viewBox="0 0 16 16">
  <g fill="none" fill-rule="evenodd">
    <polygon fill="#9AA7B0" fill-opacity=".8" points="7 1 3 5 7 5"/>
    <polygon fill="#9AA7B0" fill-opacity=".8" points="8 1 8 6 3 6 3 8 13 8 13 1"/>
    <polygon fill="#E05555" fill-opacity=".7" points="1 16 16 16 16 9 1 9"/>
    <path fill="#231F20" fill-opacity=".7" d="M3.15,3 L2.49612121,1.4 L1.85,3 L3.15,3 Z M2.109,0 L2.89,0 L5,5 L3.9,5 L3.4,4 L1.6,4 L1.1,5 L0,5 L2.109,0 Z" transform="translate(2 10)"/>
    <polygon fill="#231F20" fill-opacity=".7" points="1.996 5 1.996 3.029 0 0 1.05 0 2.496 2.207 3.95 0 5 0 3 3.007 3 5" transform="translate(6 10)"/>
    <path fill="#231F20" fill-opacity=".7" d="M3.15,3 L2.49612121,1.4 L1.85,3 L3.15,3 Z M2.109,0 L2.89,0 L5,5 L3.9,5 L3.4,4 L1.6,4 L1.1,5 L0,5 L2.109,0 Z" transform="translate(10 10)"/>
  </g>
</svg>
