<!-- Copyright 2000-2021 JetBrains s.r.o. Use of this source code is governed by the Apache 2.0 license that can be found in the LICENSE file. -->
<!-- Copied from intellij-community. Modified -->
<svg xmlns="http://www.w3.org/2000/svg" width="16" height="16" viewBox="0 0 16 16">
  <g fill="none" fill-rule="evenodd">
    <path fill="#40B6E0" fill-opacity=".6" d="M15,8 C15,11.866 11.866,15 8,15 C4.134,15 1,11.866 1,8 C1,4.134 4.134,1 8,1 C11.866,1 15,4.134 15,8"/>
    <path fill="#231F20" fill-opacity=".7" d="M6 11H8.2185C10.0885 11 11.3805 9.68857 11.3805 8V7.98286C11.3805 6.29429 10.0885 5 8.2185 5H6V11ZM8.2185 5.96C9.468 5.96 10.284 6.82571 10.284 8V8.01714C10.284 9.19143 9.468 10.04 8.2185 10.04H7.0455V5.96H8.2185Z" />
  </g>
</svg>
